solid OpenSCAD_Model
  facet normal -0.809017 0 -0.587785
    outer loop
      vertex 6.925 9.85 -25.7
      vertex 6.23402 11.85 -24.7489
      vertex 6.925 11.85 -25.7
    endloop
  endfacet
  facet normal -0.809017 -0 -0.587785
    outer loop
      vertex 6.23402 11.85 -24.7489
      vertex 6.925 9.85 -25.7
      vertex 6.23402 9.85 -24.7489
    endloop
  endfacet
  facet normal 0.309016 0 -0.951057
    outer loop
      vertex 5.11598 9.85 -25.1122
      vertex 6.23402 11.85 -24.7489
      vertex 6.23402 9.85 -24.7489
    endloop
  endfacet
  facet normal 0.309016 0 -0.951057
    outer loop
      vertex 6.23402 11.85 -24.7489
      vertex 5.11598 9.85 -25.1122
      vertex 5.11598 11.85 -25.1122
    endloop
  endfacet
  facet normal 1 -0 0
    outer loop
      vertex 5.11598 9.85 -25.1122
      vertex 5.11598 11.85 -26.2878
      vertex 5.11598 11.85 -25.1122
    endloop
  endfacet
  facet normal 1 0 0
    outer loop
      vertex 5.11598 11.85 -26.2878
      vertex 5.11598 9.85 -25.1122
      vertex 5.11598 9.85 -26.2878
    endloop
  endfacet
  facet normal 0.309017 0 0.951056
    outer loop
      vertex 5.11598 11.85 -26.2878
      vertex 6.23402 9.85 -26.6511
      vertex 6.23402 11.85 -26.6511
    endloop
  endfacet
  facet normal 0.309017 0 0.951056
    outer loop
      vertex 6.23402 9.85 -26.6511
      vertex 5.11598 11.85 -26.2878
      vertex 5.11598 9.85 -26.2878
    endloop
  endfacet
  facet normal -0.809017 0 0.587786
    outer loop
      vertex 6.23402 9.85 -26.6511
      vertex 6.925 11.85 -25.7
      vertex 6.23402 11.85 -26.6511
    endloop
  endfacet
  facet normal -0.809017 0 0.587786
    outer loop
      vertex 6.925 11.85 -25.7
      vertex 6.23402 9.85 -26.6511
      vertex 6.925 9.85 -25.7
    endloop
  endfacet
  facet normal -0.809017 0 -0.587785
    outer loop
      vertex -4.925 9.85 -25.7
      vertex -5.61598 11.85 -24.7489
      vertex -4.925 11.85 -25.7
    endloop
  endfacet
  facet normal -0.809017 -0 -0.587785
    outer loop
      vertex -5.61598 11.85 -24.7489
      vertex -4.925 9.85 -25.7
      vertex -5.61598 9.85 -24.7489
    endloop
  endfacet
  facet normal 0.309016 0 -0.951057
    outer loop
      vertex -6.73402 9.85 -25.1122
      vertex -5.61598 11.85 -24.7489
      vertex -5.61598 9.85 -24.7489
    endloop
  endfacet
  facet normal 0.309016 0 -0.951057
    outer loop
      vertex -5.61598 11.85 -24.7489
      vertex -6.73402 9.85 -25.1122
      vertex -6.73402 11.85 -25.1122
    endloop
  endfacet
  facet normal 1 -0 0
    outer loop
      vertex -6.73402 9.85 -25.1122
      vertex -6.73402 11.85 -26.2878
      vertex -6.73402 11.85 -25.1122
    endloop
  endfacet
  facet normal 1 0 0
    outer loop
      vertex -6.73402 11.85 -26.2878
      vertex -6.73402 9.85 -25.1122
      vertex -6.73402 9.85 -26.2878
    endloop
  endfacet
  facet normal 0.309017 0 0.951056
    outer loop
      vertex -6.73402 11.85 -26.2878
      vertex -5.61598 9.85 -26.6511
      vertex -5.61598 11.85 -26.6511
    endloop
  endfacet
  facet normal 0.309017 0 0.951056
    outer loop
      vertex -5.61598 9.85 -26.6511
      vertex -6.73402 11.85 -26.2878
      vertex -6.73402 9.85 -26.2878
    endloop
  endfacet
  facet normal -0.809017 0 0.587786
    outer loop
      vertex -5.61598 9.85 -26.6511
      vertex -4.925 11.85 -25.7
      vertex -5.61598 11.85 -26.6511
    endloop
  endfacet
  facet normal -0.809017 0 0.587786
    outer loop
      vertex -4.925 11.85 -25.7
      vertex -5.61598 9.85 -26.6511
      vertex -4.925 9.85 -25.7
    endloop
  endfacet
  facet normal -0.809017 0 -0.587785
    outer loop
      vertex 6.925 9.85 -45.7
      vertex 6.23402 11.85 -44.7489
      vertex 6.925 11.85 -45.7
    endloop
  endfacet
  facet normal -0.809017 -0 -0.587785
    outer loop
      vertex 6.23402 11.85 -44.7489
      vertex 6.925 9.85 -45.7
      vertex 6.23402 9.85 -44.7489
    endloop
  endfacet
  facet normal 0.309016 0 -0.951057
    outer loop
      vertex 5.11598 9.85 -45.1122
      vertex 6.23402 11.85 -44.7489
      vertex 6.23402 9.85 -44.7489
    endloop
  endfacet
  facet normal 0.309016 0 -0.951057
    outer loop
      vertex 6.23402 11.85 -44.7489
      vertex 5.11598 9.85 -45.1122
      vertex 5.11598 11.85 -45.1122
    endloop
  endfacet
  facet normal 1 -0 0
    outer loop
      vertex 5.11598 9.85 -45.1122
      vertex 5.11598 11.85 -46.2878
      vertex 5.11598 11.85 -45.1122
    endloop
  endfacet
  facet normal 1 0 0
    outer loop
      vertex 5.11598 11.85 -46.2878
      vertex 5.11598 9.85 -45.1122
      vertex 5.11598 9.85 -46.2878
    endloop
  endfacet
  facet normal 0.309016 0 0.951057
    outer loop
      vertex 5.11598 11.85 -46.2878
      vertex 6.23402 9.85 -46.6511
      vertex 6.23402 11.85 -46.6511
    endloop
  endfacet
  facet normal 0.309016 0 0.951057
    outer loop
      vertex 6.23402 9.85 -46.6511
      vertex 5.11598 11.85 -46.2878
      vertex 5.11598 9.85 -46.2878
    endloop
  endfacet
  facet normal -0.809016 0 0.587786
    outer loop
      vertex 6.23402 9.85 -46.6511
      vertex 6.925 11.85 -45.7
      vertex 6.23402 11.85 -46.6511
    endloop
  endfacet
  facet normal -0.809016 0 0.587786
    outer loop
      vertex 6.925 11.85 -45.7
      vertex 6.23402 9.85 -46.6511
      vertex 6.925 9.85 -45.7
    endloop
  endfacet
  facet normal -0.809017 0 -0.587785
    outer loop
      vertex -4.925 9.85 -45.7
      vertex -5.61598 11.85 -44.7489
      vertex -4.925 11.85 -45.7
    endloop
  endfacet
  facet normal -0.809017 -0 -0.587785
    outer loop
      vertex -5.61598 11.85 -44.7489
      vertex -4.925 9.85 -45.7
      vertex -5.61598 9.85 -44.7489
    endloop
  endfacet
  facet normal 0.309016 0 -0.951057
    outer loop
      vertex -6.73402 9.85 -45.1122
      vertex -5.61598 11.85 -44.7489
      vertex -5.61598 9.85 -44.7489
    endloop
  endfacet
  facet normal 0.309016 0 -0.951057
    outer loop
      vertex -5.61598 11.85 -44.7489
      vertex -6.73402 9.85 -45.1122
      vertex -6.73402 11.85 -45.1122
    endloop
  endfacet
  facet normal 1 -0 0
    outer loop
      vertex -6.73402 9.85 -45.1122
      vertex -6.73402 11.85 -46.2878
      vertex -6.73402 11.85 -45.1122
    endloop
  endfacet
  facet normal 1 0 0
    outer loop
      vertex -6.73402 11.85 -46.2878
      vertex -6.73402 9.85 -45.1122
      vertex -6.73402 9.85 -46.2878
    endloop
  endfacet
  facet normal 0.309016 0 0.951057
    outer loop
      vertex -6.73402 11.85 -46.2878
      vertex -5.61598 9.85 -46.6511
      vertex -5.61598 11.85 -46.6511
    endloop
  endfacet
  facet normal 0.309016 0 0.951057
    outer loop
      vertex -5.61598 9.85 -46.6511
      vertex -6.73402 11.85 -46.2878
      vertex -6.73402 9.85 -46.2878
    endloop
  endfacet
  facet normal -0.809016 0 0.587786
    outer loop
      vertex -5.61598 9.85 -46.6511
      vertex -4.925 11.85 -45.7
      vertex -5.61598 11.85 -46.6511
    endloop
  endfacet
  facet normal -0.809016 0 0.587786
    outer loop
      vertex -4.925 11.85 -45.7
      vertex -5.61598 9.85 -46.6511
      vertex -4.925 9.85 -45.7
    endloop
  endfacet
  facet normal -1 0 0
    outer loop
      vertex -16.285 9.85 -66.55
      vertex -16.285 41.35 -19.85
      vertex -16.285 41.35 -66.55
    endloop
  endfacet
  facet normal -1 -0 0
    outer loop
      vertex -16.285 41.35 -19.85
      vertex -16.285 9.85 -66.55
      vertex -16.285 9.85 -19.85
    endloop
  endfacet
  facet normal 0 0 1
    outer loop
      vertex 16.285 41.35 -19.85
      vertex 14.285 39.35 -19.85
      vertex 16.285 9.85 -19.85
    endloop
  endfacet
  facet normal 0 0 1
    outer loop
      vertex 16.285 41.35 -19.85
      vertex -14.285 39.35 -19.85
      vertex 14.285 39.35 -19.85
    endloop
  endfacet
  facet normal 0 0 1
    outer loop
      vertex -14.285 39.35 -19.85
      vertex -16.285 41.35 -19.85
      vertex -14.285 11.85 -19.85
    endloop
  endfacet
  facet normal -0 0 1
    outer loop
      vertex -16.285 41.35 -19.85
      vertex -14.285 39.35 -19.85
      vertex 16.285 41.35 -19.85
    endloop
  endfacet
  facet normal -0 0 1
    outer loop
      vertex 14.285 11.85 -19.85
      vertex 16.285 9.85 -19.85
      vertex 14.285 39.35 -19.85
    endloop
  endfacet
  facet normal -0 0 1
    outer loop
      vertex -14.285 11.85 -19.85
      vertex 16.285 9.85 -19.85
      vertex 14.285 11.85 -19.85
    endloop
  endfacet
  facet normal 0 0 1
    outer loop
      vertex -14.285 11.85 -19.85
      vertex -16.285 9.85 -19.85
      vertex 16.285 9.85 -19.85
    endloop
  endfacet
  facet normal 0 0 1
    outer loop
      vertex -16.285 9.85 -19.85
      vertex -14.285 11.85 -19.85
      vertex -16.285 41.35 -19.85
    endloop
  endfacet
  facet normal 1 -0 0
    outer loop
      vertex 16.285 9.85 -19.85
      vertex 16.285 41.35 -66.55
      vertex 16.285 41.35 -19.85
    endloop
  endfacet
  facet normal 1 0 0
    outer loop
      vertex 16.285 41.35 -66.55
      vertex 16.285 9.85 -19.85
      vertex 16.285 9.85 -66.55
    endloop
  endfacet
  facet normal 0 1 -0
    outer loop
      vertex 16.285 41.35 -66.55
      vertex -16.285 41.35 -19.85
      vertex 16.285 41.35 -19.85
    endloop
  endfacet
  facet normal 0 1 0
    outer loop
      vertex -16.285 41.35 -19.85
      vertex 16.285 41.35 -66.55
      vertex -16.285 41.35 -66.55
    endloop
  endfacet
  facet normal 0 0 -1
    outer loop
      vertex 16.285 9.85 -66.55
      vertex 5 25.6 -66.55
      vertex 16.285 41.35 -66.55
    endloop
  endfacet
  facet normal 0 0 -1
    outer loop
      vertex 16.285 9.85 -66.55
      vertex 4.6194 23.6866 -66.55
      vertex 5 25.6 -66.55
    endloop
  endfacet
  facet normal 0 0 -1
    outer loop
      vertex 16.285 9.85 -66.55
      vertex 3.53553 22.0645 -66.55
      vertex 4.6194 23.6866 -66.55
    endloop
  endfacet
  facet normal 0 0 -1
    outer loop
      vertex 16.285 9.85 -66.55
      vertex 1.91342 20.9806 -66.55
      vertex 3.53553 22.0645 -66.55
    endloop
  endfacet
  facet normal 0 0 -1
    outer loop
      vertex 16.285 9.85 -66.55
      vertex 0 20.6 -66.55
      vertex 1.91342 20.9806 -66.55
    endloop
  endfacet
  facet normal 0 0 -1
    outer loop
      vertex -16.285 9.85 -66.55
      vertex 0 20.6 -66.55
      vertex 16.285 9.85 -66.55
    endloop
  endfacet
  facet normal -0 0 -1
    outer loop
      vertex -4.6194 23.6866 -66.55
      vertex -16.285 9.85 -66.55
      vertex -5 25.6 -66.55
    endloop
  endfacet
  facet normal -0 0 -1
    outer loop
      vertex -3.53553 22.0645 -66.55
      vertex -16.285 9.85 -66.55
      vertex -4.6194 23.6866 -66.55
    endloop
  endfacet
  facet normal -0 0 -1
    outer loop
      vertex -1.91342 20.9806 -66.55
      vertex -16.285 9.85 -66.55
      vertex -3.53553 22.0645 -66.55
    endloop
  endfacet
  facet normal -0 0 -1
    outer loop
      vertex 0 20.6 -66.55
      vertex -16.285 9.85 -66.55
      vertex -1.91342 20.9806 -66.55
    endloop
  endfacet
  facet normal 0 0 -1
    outer loop
      vertex 4.6194 27.5134 -66.55
      vertex 16.285 41.35 -66.55
      vertex 5 25.6 -66.55
    endloop
  endfacet
  facet normal 0 0 -1
    outer loop
      vertex 3.53553 29.1355 -66.55
      vertex 16.285 41.35 -66.55
      vertex 4.6194 27.5134 -66.55
    endloop
  endfacet
  facet normal 0 0 -1
    outer loop
      vertex 1.91342 30.2194 -66.55
      vertex 16.285 41.35 -66.55
      vertex 3.53553 29.1355 -66.55
    endloop
  endfacet
  facet normal 0 0 -1
    outer loop
      vertex 0 30.6 -66.55
      vertex 16.285 41.35 -66.55
      vertex 1.91342 30.2194 -66.55
    endloop
  endfacet
  facet normal 0 0 -1
    outer loop
      vertex -16.285 41.35 -66.55
      vertex 0 30.6 -66.55
      vertex -1.91342 30.2194 -66.55
    endloop
  endfacet
  facet normal 0 0 -1
    outer loop
      vertex -16.285 41.35 -66.55
      vertex -5 25.6 -66.55
      vertex -16.285 9.85 -66.55
    endloop
  endfacet
  facet normal 0 0 -1
    outer loop
      vertex 0 30.6 -66.55
      vertex -16.285 41.35 -66.55
      vertex 16.285 41.35 -66.55
    endloop
  endfacet
  facet normal 0 0 -1
    outer loop
      vertex -3.53553 29.1355 -66.55
      vertex -16.285 41.35 -66.55
      vertex -1.91342 30.2194 -66.55
    endloop
  endfacet
  facet normal 0 0 -1
    outer loop
      vertex -4.6194 27.5134 -66.55
      vertex -16.285 41.35 -66.55
      vertex -3.53553 29.1355 -66.55
    endloop
  endfacet
  facet normal 0 0 -1
    outer loop
      vertex -5 25.6 -66.55
      vertex -16.285 41.35 -66.55
      vertex -4.6194 27.5134 -66.55
    endloop
  endfacet
  facet normal 0 -1 0
    outer loop
      vertex 5.11598 9.85 -26.2878
      vertex 5.11598 9.85 -45.1122
      vertex 6.23402 9.85 -44.7489
    endloop
  endfacet
  facet normal 0 -1 0
    outer loop
      vertex -4.925 9.85 -45.7
      vertex 5.11598 9.85 -45.1122
      vertex -5.61598 9.85 -44.7489
    endloop
  endfacet
  facet normal 0 -1 0
    outer loop
      vertex -4.925 9.85 -45.7
      vertex 5.11598 9.85 -46.2878
      vertex 5.11598 9.85 -45.1122
    endloop
  endfacet
  facet normal 0 -1 0
    outer loop
      vertex -5.61598 9.85 -46.6511
      vertex 5.11598 9.85 -46.2878
      vertex -4.925 9.85 -45.7
    endloop
  endfacet
  facet normal 0 -1 0
    outer loop
      vertex 16.285 9.85 -66.55
      vertex 5.11598 9.85 -46.2878
      vertex -5.61598 9.85 -46.6511
    endloop
  endfacet
  facet normal 0 -1 0
    outer loop
      vertex -5.61598 9.85 -24.7489
      vertex 5.11598 9.85 -25.1122
      vertex 6.23402 9.85 -24.7489
    endloop
  endfacet
  facet normal 0 -1 0
    outer loop
      vertex -4.925 9.85 -25.7
      vertex 5.11598 9.85 -25.1122
      vertex -5.61598 9.85 -24.7489
    endloop
  endfacet
  facet normal 0 -1 0
    outer loop
      vertex -4.925 9.85 -25.7
      vertex 5.11598 9.85 -26.2878
      vertex 5.11598 9.85 -25.1122
    endloop
  endfacet
  facet normal 0 -1 0
    outer loop
      vertex -5.61598 9.85 -26.6511
      vertex 5.11598 9.85 -26.2878
      vertex -4.925 9.85 -25.7
    endloop
  endfacet
  facet normal 0 -1 0
    outer loop
      vertex -5.61598 9.85 -44.7489
      vertex 5.11598 9.85 -26.2878
      vertex -5.61598 9.85 -26.6511
    endloop
  endfacet
  facet normal 0 -1 0
    outer loop
      vertex -16.285 9.85 -19.85
      vertex -5.61598 9.85 -24.7489
      vertex 16.285 9.85 -19.85
    endloop
  endfacet
  facet normal 0 -1 0
    outer loop
      vertex -16.285 9.85 -19.85
      vertex -6.73402 9.85 -25.1122
      vertex -5.61598 9.85 -24.7489
    endloop
  endfacet
  facet normal 0 -1 0
    outer loop
      vertex -16.285 9.85 -19.85
      vertex -6.73402 9.85 -26.2878
      vertex -6.73402 9.85 -25.1122
    endloop
  endfacet
  facet normal 0 -1 0
    outer loop
      vertex 5.11598 9.85 -45.1122
      vertex 5.11598 9.85 -26.2878
      vertex -5.61598 9.85 -44.7489
    endloop
  endfacet
  facet normal 0 -1 0
    outer loop
      vertex -6.73402 9.85 -26.2878
      vertex -5.61598 9.85 -44.7489
      vertex -5.61598 9.85 -26.6511
    endloop
  endfacet
  facet normal 0 -1 0
    outer loop
      vertex -6.73402 9.85 -45.1122
      vertex -6.73402 9.85 -26.2878
      vertex -16.285 9.85 -19.85
    endloop
  endfacet
  facet normal 0 -1 0
    outer loop
      vertex -6.73402 9.85 -26.2878
      vertex -6.73402 9.85 -45.1122
      vertex -5.61598 9.85 -44.7489
    endloop
  endfacet
  facet normal 0 -1 0
    outer loop
      vertex -16.285 9.85 -66.55
      vertex -6.73402 9.85 -45.1122
      vertex -16.285 9.85 -19.85
    endloop
  endfacet
  facet normal 0 -1 0
    outer loop
      vertex 16.285 9.85 -66.55
      vertex -5.61598 9.85 -46.6511
      vertex -16.285 9.85 -66.55
    endloop
  endfacet
  facet normal 0 -1 -0
    outer loop
      vertex -6.73402 9.85 -46.2878
      vertex -16.285 9.85 -66.55
      vertex -5.61598 9.85 -46.6511
    endloop
  endfacet
  facet normal 0 -1 -0
    outer loop
      vertex -6.73402 9.85 -45.1122
      vertex -16.285 9.85 -66.55
      vertex -6.73402 9.85 -46.2878
    endloop
  endfacet
  facet normal 0 -1 0
    outer loop
      vertex 6.23402 9.85 -24.7489
      vertex 16.285 9.85 -19.85
      vertex -5.61598 9.85 -24.7489
    endloop
  endfacet
  facet normal 0 -1 0
    outer loop
      vertex 6.925 9.85 -25.7
      vertex 16.285 9.85 -19.85
      vertex 6.23402 9.85 -24.7489
    endloop
  endfacet
  facet normal 0 -1 0
    outer loop
      vertex 6.23402 9.85 -26.6511
      vertex 16.285 9.85 -19.85
      vertex 6.925 9.85 -25.7
    endloop
  endfacet
  facet normal 0 -1 0
    outer loop
      vertex 5.11598 9.85 -26.2878
      vertex 6.23402 9.85 -44.7489
      vertex 6.23402 9.85 -26.6511
    endloop
  endfacet
  facet normal 0 -1 0
    outer loop
      vertex 6.23402 9.85 -26.6511
      vertex 6.23402 9.85 -44.7489
      vertex 16.285 9.85 -19.85
    endloop
  endfacet
  facet normal 0 -1 0
    outer loop
      vertex 6.925 9.85 -45.7
      vertex 16.285 9.85 -19.85
      vertex 6.23402 9.85 -44.7489
    endloop
  endfacet
  facet normal 0 -1 0
    outer loop
      vertex 6.925 9.85 -45.7
      vertex 16.285 9.85 -66.55
      vertex 16.285 9.85 -19.85
    endloop
  endfacet
  facet normal 0 -1 0
    outer loop
      vertex 6.23402 9.85 -46.6511
      vertex 16.285 9.85 -66.55
      vertex 6.925 9.85 -45.7
    endloop
  endfacet
  facet normal 0 -1 0
    outer loop
      vertex 5.11598 9.85 -46.2878
      vertex 16.285 9.85 -66.55
      vertex 6.23402 9.85 -46.6511
    endloop
  endfacet
  facet normal 1 -0 0
    outer loop
      vertex -14.285 11.85 -19.85
      vertex -14.285 39.35 -62.55
      vertex -14.285 39.35 -19.85
    endloop
  endfacet
  facet normal 1 0 0
    outer loop
      vertex -14.285 39.35 -62.55
      vertex -14.285 11.85 -19.85
      vertex -14.285 11.85 -62.55
    endloop
  endfacet
  facet normal -1 0 0
    outer loop
      vertex 14.285 11.85 -62.55
      vertex 14.285 39.35 -19.85
      vertex 14.285 39.35 -62.55
    endloop
  endfacet
  facet normal -1 -0 0
    outer loop
      vertex 14.285 39.35 -19.85
      vertex 14.285 11.85 -62.55
      vertex 14.285 11.85 -19.85
    endloop
  endfacet
  facet normal 0 0 1
    outer loop
      vertex 14.285 39.35 -62.55
      vertex 5 25.6 -62.55
      vertex 14.285 11.85 -62.55
    endloop
  endfacet
  facet normal 0 0 1
    outer loop
      vertex 14.285 39.35 -62.55
      vertex 4.6194 27.5134 -62.55
      vertex 5 25.6 -62.55
    endloop
  endfacet
  facet normal 0 0 1
    outer loop
      vertex 14.285 39.35 -62.55
      vertex 3.53553 29.1355 -62.55
      vertex 4.6194 27.5134 -62.55
    endloop
  endfacet
  facet normal 0 0 1
    outer loop
      vertex 14.285 39.35 -62.55
      vertex 1.91342 30.2194 -62.55
      vertex 3.53553 29.1355 -62.55
    endloop
  endfacet
  facet normal 0 0 1
    outer loop
      vertex 14.285 39.35 -62.55
      vertex 0 30.6 -62.55
      vertex 1.91342 30.2194 -62.55
    endloop
  endfacet
  facet normal -0 0 1
    outer loop
      vertex -14.285 39.35 -62.55
      vertex 0 30.6 -62.55
      vertex 14.285 39.35 -62.55
    endloop
  endfacet
  facet normal 0 0 1
    outer loop
      vertex -4.6194 27.5134 -62.55
      vertex -14.285 39.35 -62.55
      vertex -5 25.6 -62.55
    endloop
  endfacet
  facet normal 0 0 1
    outer loop
      vertex -3.53553 29.1355 -62.55
      vertex -14.285 39.35 -62.55
      vertex -4.6194 27.5134 -62.55
    endloop
  endfacet
  facet normal 0 0 1
    outer loop
      vertex -1.91342 30.2194 -62.55
      vertex -14.285 39.35 -62.55
      vertex -3.53553 29.1355 -62.55
    endloop
  endfacet
  facet normal 0 0 1
    outer loop
      vertex 0 30.6 -62.55
      vertex -14.285 39.35 -62.55
      vertex -1.91342 30.2194 -62.55
    endloop
  endfacet
  facet normal -0 0 1
    outer loop
      vertex 4.6194 23.6866 -62.55
      vertex 14.285 11.85 -62.55
      vertex 5 25.6 -62.55
    endloop
  endfacet
  facet normal -0 0 1
    outer loop
      vertex 3.53553 22.0645 -62.55
      vertex 14.285 11.85 -62.55
      vertex 4.6194 23.6866 -62.55
    endloop
  endfacet
  facet normal -0 0 1
    outer loop
      vertex 1.91342 20.9806 -62.55
      vertex 14.285 11.85 -62.55
      vertex 3.53553 22.0645 -62.55
    endloop
  endfacet
  facet normal -0 0 1
    outer loop
      vertex 0 20.6 -62.55
      vertex 14.285 11.85 -62.55
      vertex 1.91342 20.9806 -62.55
    endloop
  endfacet
  facet normal 0 0 1
    outer loop
      vertex -14.285 11.85 -62.55
      vertex 0 20.6 -62.55
      vertex -1.91342 20.9806 -62.55
    endloop
  endfacet
  facet normal 0 0 1
    outer loop
      vertex -14.285 11.85 -62.55
      vertex -5 25.6 -62.55
      vertex -14.285 39.35 -62.55
    endloop
  endfacet
  facet normal 0 0 1
    outer loop
      vertex 0 20.6 -62.55
      vertex -14.285 11.85 -62.55
      vertex 14.285 11.85 -62.55
    endloop
  endfacet
  facet normal 0 0 1
    outer loop
      vertex -3.53553 22.0645 -62.55
      vertex -14.285 11.85 -62.55
      vertex -1.91342 20.9806 -62.55
    endloop
  endfacet
  facet normal 0 0 1
    outer loop
      vertex -4.6194 23.6866 -62.55
      vertex -14.285 11.85 -62.55
      vertex -3.53553 22.0645 -62.55
    endloop
  endfacet
  facet normal 0 0 1
    outer loop
      vertex -5 25.6 -62.55
      vertex -14.285 11.85 -62.55
      vertex -4.6194 23.6866 -62.55
    endloop
  endfacet
  facet normal 0 1 0
    outer loop
      vertex 5.11598 11.85 -26.2878
      vertex 5.11598 11.85 -45.1122
      vertex -5.61598 11.85 -44.7489
    endloop
  endfacet
  facet normal 0 1 0
    outer loop
      vertex 5.11598 11.85 -45.1122
      vertex -4.925 11.85 -45.7
      vertex -5.61598 11.85 -44.7489
    endloop
  endfacet
  facet normal 0 1 -0
    outer loop
      vertex 5.11598 11.85 -46.2878
      vertex -4.925 11.85 -45.7
      vertex 5.11598 11.85 -45.1122
    endloop
  endfacet
  facet normal 0 1 0
    outer loop
      vertex 14.285 11.85 -62.55
      vertex 5.11598 11.85 -46.2878
      vertex 6.23402 11.85 -46.6511
    endloop
  endfacet
  facet normal 0 1 0
    outer loop
      vertex 5.11598 11.85 -46.2878
      vertex -5.61598 11.85 -46.6511
      vertex -4.925 11.85 -45.7
    endloop
  endfacet
  facet normal 0 1 -0
    outer loop
      vertex 5.11598 11.85 -25.1122
      vertex -5.61598 11.85 -24.7489
      vertex 6.23402 11.85 -24.7489
    endloop
  endfacet
  facet normal 0 1 0
    outer loop
      vertex 5.11598 11.85 -25.1122
      vertex -4.925 11.85 -25.7
      vertex -5.61598 11.85 -24.7489
    endloop
  endfacet
  facet normal 0 1 -0
    outer loop
      vertex 5.11598 11.85 -26.2878
      vertex -4.925 11.85 -25.7
      vertex 5.11598 11.85 -25.1122
    endloop
  endfacet
  facet normal 0 1 -0
    outer loop
      vertex 6.23402 11.85 -44.7489
      vertex 5.11598 11.85 -26.2878
      vertex 6.23402 11.85 -26.6511
    endloop
  endfacet
  facet normal 0 1 0
    outer loop
      vertex 5.11598 11.85 -26.2878
      vertex -5.61598 11.85 -26.6511
      vertex -4.925 11.85 -25.7
    endloop
  endfacet
  facet normal 0 1 0
    outer loop
      vertex -5.61598 11.85 -24.7489
      vertex 14.285 11.85 -19.85
      vertex 6.23402 11.85 -24.7489
    endloop
  endfacet
  facet normal 0 1 0
    outer loop
      vertex 14.285 11.85 -19.85
      vertex 6.925 11.85 -25.7
      vertex 6.23402 11.85 -24.7489
    endloop
  endfacet
  facet normal 0 1 0
    outer loop
      vertex 6.925 11.85 -45.7
      vertex 6.925 11.85 -25.7
      vertex 14.285 11.85 -19.85
    endloop
  endfacet
  facet normal 0 1 0
    outer loop
      vertex 5.11598 11.85 -45.1122
      vertex 5.11598 11.85 -26.2878
      vertex 6.23402 11.85 -44.7489
    endloop
  endfacet
  facet normal 0 1 0
    outer loop
      vertex 6.925 11.85 -25.7
      vertex 6.925 11.85 -45.7
      vertex 6.23402 11.85 -26.6511
    endloop
  endfacet
  facet normal 0 1 0
    outer loop
      vertex 6.23402 11.85 -26.6511
      vertex 6.925 11.85 -45.7
      vertex 6.23402 11.85 -44.7489
    endloop
  endfacet
  facet normal 0 1 0
    outer loop
      vertex 5.11598 11.85 -46.2878
      vertex 14.285 11.85 -62.55
      vertex -5.61598 11.85 -46.6511
    endloop
  endfacet
  facet normal 0 1 0
    outer loop
      vertex 6.925 11.85 -45.7
      vertex 14.285 11.85 -62.55
      vertex 6.23402 11.85 -46.6511
    endloop
  endfacet
  facet normal 0 1 -0
    outer loop
      vertex 14.285 11.85 -62.55
      vertex 6.925 11.85 -45.7
      vertex 14.285 11.85 -19.85
    endloop
  endfacet
  facet normal 0 1 0
    outer loop
      vertex 14.285 11.85 -19.85
      vertex -5.61598 11.85 -24.7489
      vertex -14.285 11.85 -19.85
    endloop
  endfacet
  facet normal 0 1 -0
    outer loop
      vertex -6.73402 11.85 -25.1122
      vertex -14.285 11.85 -19.85
      vertex -5.61598 11.85 -24.7489
    endloop
  endfacet
  facet normal 0 1 -0
    outer loop
      vertex -6.73402 11.85 -26.2878
      vertex -14.285 11.85 -19.85
      vertex -6.73402 11.85 -25.1122
    endloop
  endfacet
  facet normal 0 1 0
    outer loop
      vertex 5.11598 11.85 -26.2878
      vertex -5.61598 11.85 -44.7489
      vertex -5.61598 11.85 -26.6511
    endloop
  endfacet
  facet normal 0 1 0
    outer loop
      vertex -5.61598 11.85 -26.6511
      vertex -5.61598 11.85 -44.7489
      vertex -6.73402 11.85 -26.2878
    endloop
  endfacet
  facet normal 0 1 0
    outer loop
      vertex -6.73402 11.85 -45.1122
      vertex -6.73402 11.85 -26.2878
      vertex -5.61598 11.85 -44.7489
    endloop
  endfacet
  facet normal 0 1 0
    outer loop
      vertex -6.73402 11.85 -26.2878
      vertex -6.73402 11.85 -45.1122
      vertex -14.285 11.85 -19.85
    endloop
  endfacet
  facet normal 0 1 0
    outer loop
      vertex -14.285 11.85 -62.55
      vertex -6.73402 11.85 -45.1122
      vertex -6.73402 11.85 -46.2878
    endloop
  endfacet
  facet normal 0 1 0
    outer loop
      vertex -14.285 11.85 -62.55
      vertex -5.61598 11.85 -46.6511
      vertex 14.285 11.85 -62.55
    endloop
  endfacet
  facet normal 0 1 0
    outer loop
      vertex -6.73402 11.85 -45.1122
      vertex -14.285 11.85 -62.55
      vertex -14.285 11.85 -19.85
    endloop
  endfacet
  facet normal 0 1 0
    outer loop
      vertex -5.61598 11.85 -46.6511
      vertex -14.285 11.85 -62.55
      vertex -6.73402 11.85 -46.2878
    endloop
  endfacet
  facet normal 0 -1 0
    outer loop
      vertex -14.285 39.35 -62.55
      vertex 14.285 39.35 -19.85
      vertex -14.285 39.35 -19.85
    endloop
  endfacet
  facet normal 0 -1 -0
    outer loop
      vertex 14.285 39.35 -19.85
      vertex -14.285 39.35 -62.55
      vertex 14.285 39.35 -62.55
    endloop
  endfacet
  facet normal -0.980785 -0.195091 0
    outer loop
      vertex 5 25.6 -66.55
      vertex 4.6194 27.5134 -62.55
      vertex 4.6194 27.5134 -66.55
    endloop
  endfacet
  facet normal -0.980785 -0.195091 0
    outer loop
      vertex 4.6194 27.5134 -62.55
      vertex 5 25.6 -66.55
      vertex 5 25.6 -62.55
    endloop
  endfacet
  facet normal 0.980785 -0.195091 0
    outer loop
      vertex -5 25.6 -62.55
      vertex -4.6194 27.5134 -66.55
      vertex -4.6194 27.5134 -62.55
    endloop
  endfacet
  facet normal 0.980785 -0.195091 0
    outer loop
      vertex -4.6194 27.5134 -66.55
      vertex -5 25.6 -62.55
      vertex -5 25.6 -66.55
    endloop
  endfacet
  facet normal -0.195091 -0.980785 0
    outer loop
      vertex 0 30.6 -66.55
      vertex 1.91342 30.2194 -62.55
      vertex 0 30.6 -62.55
    endloop
  endfacet
  facet normal -0.195091 -0.980785 -0
    outer loop
      vertex 1.91342 30.2194 -62.55
      vertex 0 30.6 -66.55
      vertex 1.91342 30.2194 -66.55
    endloop
  endfacet
  facet normal -0.83147 -0.55557 0
    outer loop
      vertex 4.6194 27.5134 -66.55
      vertex 3.53553 29.1355 -62.55
      vertex 3.53553 29.1355 -66.55
    endloop
  endfacet
  facet normal -0.83147 -0.55557 0
    outer loop
      vertex 3.53553 29.1355 -62.55
      vertex 4.6194 27.5134 -66.55
      vertex 4.6194 27.5134 -62.55
    endloop
  endfacet
  facet normal 0.19509 0.980785 -0
    outer loop
      vertex 0 20.6 -66.55
      vertex -1.91342 20.9806 -62.55
      vertex 0 20.6 -62.55
    endloop
  endfacet
  facet normal 0.19509 0.980785 0
    outer loop
      vertex -1.91342 20.9806 -62.55
      vertex 0 20.6 -66.55
      vertex -1.91342 20.9806 -66.55
    endloop
  endfacet
  facet normal -0.19509 0.980785 0
    outer loop
      vertex 1.91342 20.9806 -66.55
      vertex 0 20.6 -62.55
      vertex 1.91342 20.9806 -62.55
    endloop
  endfacet
  facet normal -0.19509 0.980785 0
    outer loop
      vertex 0 20.6 -62.55
      vertex 1.91342 20.9806 -66.55
      vertex 0 20.6 -66.55
    endloop
  endfacet
  facet normal -0.55557 -0.83147 0
    outer loop
      vertex 1.91342 30.2194 -66.55
      vertex 3.53553 29.1355 -62.55
      vertex 1.91342 30.2194 -62.55
    endloop
  endfacet
  facet normal -0.55557 -0.83147 -0
    outer loop
      vertex 3.53553 29.1355 -62.55
      vertex 1.91342 30.2194 -66.55
      vertex 3.53553 29.1355 -66.55
    endloop
  endfacet
  facet normal 0.55557 -0.83147 0
    outer loop
      vertex -3.53553 29.1355 -66.55
      vertex -1.91342 30.2194 -62.55
      vertex -3.53553 29.1355 -62.55
    endloop
  endfacet
  facet normal 0.55557 -0.83147 0
    outer loop
      vertex -1.91342 30.2194 -62.55
      vertex -3.53553 29.1355 -66.55
      vertex -1.91342 30.2194 -66.55
    endloop
  endfacet
  facet normal 0.83147 -0.55557 0
    outer loop
      vertex -4.6194 27.5134 -62.55
      vertex -3.53553 29.1355 -66.55
      vertex -3.53553 29.1355 -62.55
    endloop
  endfacet
  facet normal 0.83147 -0.55557 0
    outer loop
      vertex -3.53553 29.1355 -66.55
      vertex -4.6194 27.5134 -62.55
      vertex -4.6194 27.5134 -66.55
    endloop
  endfacet
  facet normal 0.195091 -0.980785 0
    outer loop
      vertex -1.91342 30.2194 -66.55
      vertex 0 30.6 -62.55
      vertex -1.91342 30.2194 -62.55
    endloop
  endfacet
  facet normal 0.195091 -0.980785 0
    outer loop
      vertex 0 30.6 -62.55
      vertex -1.91342 30.2194 -66.55
      vertex 0 30.6 -66.55
    endloop
  endfacet
  facet normal 0.55557 0.83147 -0
    outer loop
      vertex -1.91342 20.9806 -66.55
      vertex -3.53553 22.0645 -62.55
      vertex -1.91342 20.9806 -62.55
    endloop
  endfacet
  facet normal 0.55557 0.83147 0
    outer loop
      vertex -3.53553 22.0645 -62.55
      vertex -1.91342 20.9806 -66.55
      vertex -3.53553 22.0645 -66.55
    endloop
  endfacet
  facet normal 0.980785 0.195091 0
    outer loop
      vertex -4.6194 23.6866 -62.55
      vertex -5 25.6 -66.55
      vertex -5 25.6 -62.55
    endloop
  endfacet
  facet normal 0.980785 0.195091 0
    outer loop
      vertex -5 25.6 -66.55
      vertex -4.6194 23.6866 -62.55
      vertex -4.6194 23.6866 -66.55
    endloop
  endfacet
  facet normal -0.55557 0.83147 0
    outer loop
      vertex 3.53553 22.0645 -66.55
      vertex 1.91342 20.9806 -62.55
      vertex 3.53553 22.0645 -62.55
    endloop
  endfacet
  facet normal -0.55557 0.83147 0
    outer loop
      vertex 1.91342 20.9806 -62.55
      vertex 3.53553 22.0645 -66.55
      vertex 1.91342 20.9806 -66.55
    endloop
  endfacet
  facet normal -0.83147 0.55557 0
    outer loop
      vertex 3.53553 22.0645 -66.55
      vertex 4.6194 23.6866 -62.55
      vertex 4.6194 23.6866 -66.55
    endloop
  endfacet
  facet normal -0.83147 0.55557 0
    outer loop
      vertex 4.6194 23.6866 -62.55
      vertex 3.53553 22.0645 -66.55
      vertex 3.53553 22.0645 -62.55
    endloop
  endfacet
  facet normal 0.83147 0.55557 0
    outer loop
      vertex -3.53553 22.0645 -62.55
      vertex -4.6194 23.6866 -66.55
      vertex -4.6194 23.6866 -62.55
    endloop
  endfacet
  facet normal 0.83147 0.55557 0
    outer loop
      vertex -4.6194 23.6866 -66.55
      vertex -3.53553 22.0645 -62.55
      vertex -3.53553 22.0645 -66.55
    endloop
  endfacet
  facet normal -0.980785 0.195091 0
    outer loop
      vertex 4.6194 23.6866 -66.55
      vertex 5 25.6 -62.55
      vertex 5 25.6 -66.55
    endloop
  endfacet
  facet normal -0.980785 0.195091 0
    outer loop
      vertex 5 25.6 -62.55
      vertex 4.6194 23.6866 -66.55
      vertex 4.6194 23.6866 -62.55
    endloop
  endfacet
endsolid OpenSCAD_Model
