solid OpenSCAD_Model
  facet normal -1 0 0
    outer loop
      vertex -16.285 9.85 -66.55
      vertex -16.285 40.35 -19.85
      vertex -16.285 40.35 -66.55
    endloop
  endfacet
  facet normal -1 -0 0
    outer loop
      vertex -16.285 40.35 -19.85
      vertex -16.285 9.85 -66.55
      vertex -16.285 9.85 -19.85
    endloop
  endfacet
  facet normal 0 0 1
    outer loop
      vertex 16.285 40.35 -19.85
      vertex 14.285 38.35 -19.85
      vertex 16.285 9.85 -19.85
    endloop
  endfacet
  facet normal 0 0 1
    outer loop
      vertex 16.285 40.35 -19.85
      vertex -14.285 38.35 -19.85
      vertex 14.285 38.35 -19.85
    endloop
  endfacet
  facet normal 0 0 1
    outer loop
      vertex -14.285 38.35 -19.85
      vertex -16.285 40.35 -19.85
      vertex -14.285 11.85 -19.85
    endloop
  endfacet
  facet normal -0 0 1
    outer loop
      vertex -16.285 40.35 -19.85
      vertex -14.285 38.35 -19.85
      vertex 16.285 40.35 -19.85
    endloop
  endfacet
  facet normal -0 0 1
    outer loop
      vertex 14.285 11.85 -19.85
      vertex 16.285 9.85 -19.85
      vertex 14.285 38.35 -19.85
    endloop
  endfacet
  facet normal -0 0 1
    outer loop
      vertex -14.285 11.85 -19.85
      vertex 16.285 9.85 -19.85
      vertex 14.285 11.85 -19.85
    endloop
  endfacet
  facet normal 0 0 1
    outer loop
      vertex -14.285 11.85 -19.85
      vertex -16.285 9.85 -19.85
      vertex 16.285 9.85 -19.85
    endloop
  endfacet
  facet normal 0 0 1
    outer loop
      vertex -16.285 9.85 -19.85
      vertex -14.285 11.85 -19.85
      vertex -16.285 40.35 -19.85
    endloop
  endfacet
  facet normal 1 -0 0
    outer loop
      vertex 16.285 9.85 -19.85
      vertex 16.285 40.35 -66.55
      vertex 16.285 40.35 -19.85
    endloop
  endfacet
  facet normal 1 0 0
    outer loop
      vertex 16.285 40.35 -66.55
      vertex 16.285 9.85 -19.85
      vertex 16.285 9.85 -66.55
    endloop
  endfacet
  facet normal 0 0 -1
    outer loop
      vertex 16.285 9.85 -66.55
      vertex 4.875 25.1 -66.55
      vertex 16.285 40.35 -66.55
    endloop
  endfacet
  facet normal 0 0 -1
    outer loop
      vertex 16.285 9.85 -66.55
      vertex 4.50391 23.2344 -66.55
      vertex 4.875 25.1 -66.55
    endloop
  endfacet
  facet normal 0 0 -1
    outer loop
      vertex 16.285 9.85 -66.55
      vertex 3.44715 21.6529 -66.55
      vertex 4.50391 23.2344 -66.55
    endloop
  endfacet
  facet normal 0 0 -1
    outer loop
      vertex 16.285 9.85 -66.55
      vertex 1.86558 20.5961 -66.55
      vertex 3.44715 21.6529 -66.55
    endloop
  endfacet
  facet normal 0 0 -1
    outer loop
      vertex 16.285 9.85 -66.55
      vertex 0 20.225 -66.55
      vertex 1.86558 20.5961 -66.55
    endloop
  endfacet
  facet normal 0 0 -1
    outer loop
      vertex -16.285 9.85 -66.55
      vertex 0 20.225 -66.55
      vertex 16.285 9.85 -66.55
    endloop
  endfacet
  facet normal -0 0 -1
    outer loop
      vertex -4.50391 23.2344 -66.55
      vertex -16.285 9.85 -66.55
      vertex -4.875 25.1 -66.55
    endloop
  endfacet
  facet normal -0 0 -1
    outer loop
      vertex -3.44715 21.6529 -66.55
      vertex -16.285 9.85 -66.55
      vertex -4.50391 23.2344 -66.55
    endloop
  endfacet
  facet normal -0 0 -1
    outer loop
      vertex -1.86558 20.5961 -66.55
      vertex -16.285 9.85 -66.55
      vertex -3.44715 21.6529 -66.55
    endloop
  endfacet
  facet normal -0 0 -1
    outer loop
      vertex 0 20.225 -66.55
      vertex -16.285 9.85 -66.55
      vertex -1.86558 20.5961 -66.55
    endloop
  endfacet
  facet normal 0 0 -1
    outer loop
      vertex 4.50391 26.9656 -66.55
      vertex 16.285 40.35 -66.55
      vertex 4.875 25.1 -66.55
    endloop
  endfacet
  facet normal 0 0 -1
    outer loop
      vertex 3.44715 28.5471 -66.55
      vertex 16.285 40.35 -66.55
      vertex 4.50391 26.9656 -66.55
    endloop
  endfacet
  facet normal 0 0 -1
    outer loop
      vertex 1.86558 29.6039 -66.55
      vertex 16.285 40.35 -66.55
      vertex 3.44715 28.5471 -66.55
    endloop
  endfacet
  facet normal 0 0 -1
    outer loop
      vertex 0 29.975 -66.55
      vertex 16.285 40.35 -66.55
      vertex 1.86558 29.6039 -66.55
    endloop
  endfacet
  facet normal 0 0 -1
    outer loop
      vertex -16.285 40.35 -66.55
      vertex 0 29.975 -66.55
      vertex -1.86558 29.6039 -66.55
    endloop
  endfacet
  facet normal 0 0 -1
    outer loop
      vertex -16.285 40.35 -66.55
      vertex -4.875 25.1 -66.55
      vertex -16.285 9.85 -66.55
    endloop
  endfacet
  facet normal 0 0 -1
    outer loop
      vertex -4.875 25.1 -66.55
      vertex -16.285 40.35 -66.55
      vertex -4.50391 26.9656 -66.55
    endloop
  endfacet
  facet normal 0 0 -1
    outer loop
      vertex 0 29.975 -66.55
      vertex -16.285 40.35 -66.55
      vertex 16.285 40.35 -66.55
    endloop
  endfacet
  facet normal 0 0 -1
    outer loop
      vertex -3.44715 28.5471 -66.55
      vertex -16.285 40.35 -66.55
      vertex -1.86558 29.6039 -66.55
    endloop
  endfacet
  facet normal 0 0 -1
    outer loop
      vertex -4.50391 26.9656 -66.55
      vertex -16.285 40.35 -66.55
      vertex -3.44715 28.5471 -66.55
    endloop
  endfacet
  facet normal 0 -1 0
    outer loop
      vertex 5.11598 9.85 -26.2878
      vertex 5.11598 9.85 -45.1122
      vertex 6.23402 9.85 -44.7489
    endloop
  endfacet
  facet normal 0 -1 0
    outer loop
      vertex -4.925 9.85 -45.7
      vertex 5.11598 9.85 -45.1122
      vertex -5.61598 9.85 -44.7489
    endloop
  endfacet
  facet normal 0 -1 0
    outer loop
      vertex -4.925 9.85 -45.7
      vertex 5.11598 9.85 -46.2878
      vertex 5.11598 9.85 -45.1122
    endloop
  endfacet
  facet normal 0 -1 0
    outer loop
      vertex -5.61598 9.85 -46.6511
      vertex 5.11598 9.85 -46.2878
      vertex -4.925 9.85 -45.7
    endloop
  endfacet
  facet normal 0 -1 0
    outer loop
      vertex 16.285 9.85 -66.55
      vertex 5.11598 9.85 -46.2878
      vertex -5.61598 9.85 -46.6511
    endloop
  endfacet
  facet normal 0 -1 0
    outer loop
      vertex -5.61598 9.85 -24.7489
      vertex 5.11598 9.85 -25.1122
      vertex 6.23402 9.85 -24.7489
    endloop
  endfacet
  facet normal 0 -1 0
    outer loop
      vertex -4.925 9.85 -25.7
      vertex 5.11598 9.85 -25.1122
      vertex -5.61598 9.85 -24.7489
    endloop
  endfacet
  facet normal 0 -1 0
    outer loop
      vertex -4.925 9.85 -25.7
      vertex 5.11598 9.85 -26.2878
      vertex 5.11598 9.85 -25.1122
    endloop
  endfacet
  facet normal 0 -1 0
    outer loop
      vertex -5.61598 9.85 -26.6511
      vertex 5.11598 9.85 -26.2878
      vertex -4.925 9.85 -25.7
    endloop
  endfacet
  facet normal 0 -1 0
    outer loop
      vertex -5.61598 9.85 -44.7489
      vertex 5.11598 9.85 -26.2878
      vertex -5.61598 9.85 -26.6511
    endloop
  endfacet
  facet normal 0 -1 0
    outer loop
      vertex -16.285 9.85 -19.85
      vertex -5.61598 9.85 -24.7489
      vertex 16.285 9.85 -19.85
    endloop
  endfacet
  facet normal 0 -1 0
    outer loop
      vertex -16.285 9.85 -19.85
      vertex -6.73402 9.85 -25.1122
      vertex -5.61598 9.85 -24.7489
    endloop
  endfacet
  facet normal 0 -1 0
    outer loop
      vertex -16.285 9.85 -19.85
      vertex -6.73402 9.85 -26.2878
      vertex -6.73402 9.85 -25.1122
    endloop
  endfacet
  facet normal 0 -1 0
    outer loop
      vertex 5.11598 9.85 -45.1122
      vertex 5.11598 9.85 -26.2878
      vertex -5.61598 9.85 -44.7489
    endloop
  endfacet
  facet normal 0 -1 0
    outer loop
      vertex -6.73402 9.85 -26.2878
      vertex -5.61598 9.85 -44.7489
      vertex -5.61598 9.85 -26.6511
    endloop
  endfacet
  facet normal 0 -1 0
    outer loop
      vertex -6.73402 9.85 -45.1122
      vertex -6.73402 9.85 -26.2878
      vertex -16.285 9.85 -19.85
    endloop
  endfacet
  facet normal 0 -1 0
    outer loop
      vertex -6.73402 9.85 -26.2878
      vertex -6.73402 9.85 -45.1122
      vertex -5.61598 9.85 -44.7489
    endloop
  endfacet
  facet normal 0 -1 0
    outer loop
      vertex -16.285 9.85 -66.55
      vertex -6.73402 9.85 -45.1122
      vertex -16.285 9.85 -19.85
    endloop
  endfacet
  facet normal 0 -1 0
    outer loop
      vertex 16.285 9.85 -66.55
      vertex -5.61598 9.85 -46.6511
      vertex -16.285 9.85 -66.55
    endloop
  endfacet
  facet normal 0 -1 -0
    outer loop
      vertex -6.73402 9.85 -46.2878
      vertex -16.285 9.85 -66.55
      vertex -5.61598 9.85 -46.6511
    endloop
  endfacet
  facet normal 0 -1 -0
    outer loop
      vertex -6.73402 9.85 -45.1122
      vertex -16.285 9.85 -66.55
      vertex -6.73402 9.85 -46.2878
    endloop
  endfacet
  facet normal 0 -1 0
    outer loop
      vertex 6.23402 9.85 -24.7489
      vertex 16.285 9.85 -19.85
      vertex -5.61598 9.85 -24.7489
    endloop
  endfacet
  facet normal 0 -1 0
    outer loop
      vertex 6.925 9.85 -25.7
      vertex 16.285 9.85 -19.85
      vertex 6.23402 9.85 -24.7489
    endloop
  endfacet
  facet normal 0 -1 0
    outer loop
      vertex 6.23402 9.85 -26.6511
      vertex 16.285 9.85 -19.85
      vertex 6.925 9.85 -25.7
    endloop
  endfacet
  facet normal 0 -1 0
    outer loop
      vertex 5.11598 9.85 -26.2878
      vertex 6.23402 9.85 -44.7489
      vertex 6.23402 9.85 -26.6511
    endloop
  endfacet
  facet normal 0 -1 0
    outer loop
      vertex 6.23402 9.85 -26.6511
      vertex 6.23402 9.85 -44.7489
      vertex 16.285 9.85 -19.85
    endloop
  endfacet
  facet normal 0 -1 0
    outer loop
      vertex 6.925 9.85 -45.7
      vertex 16.285 9.85 -19.85
      vertex 6.23402 9.85 -44.7489
    endloop
  endfacet
  facet normal 0 -1 0
    outer loop
      vertex 6.925 9.85 -45.7
      vertex 16.285 9.85 -66.55
      vertex 16.285 9.85 -19.85
    endloop
  endfacet
  facet normal 0 -1 0
    outer loop
      vertex 6.23402 9.85 -46.6511
      vertex 16.285 9.85 -66.55
      vertex 6.925 9.85 -45.7
    endloop
  endfacet
  facet normal 0 -1 0
    outer loop
      vertex 5.11598 9.85 -46.2878
      vertex 16.285 9.85 -66.55
      vertex 6.23402 9.85 -46.6511
    endloop
  endfacet
  facet normal 0 1 -0
    outer loop
      vertex 16.285 40.35 -66.55
      vertex -16.285 40.35 -19.85
      vertex 16.285 40.35 -19.85
    endloop
  endfacet
  facet normal 0 1 0
    outer loop
      vertex -16.285 40.35 -19.85
      vertex 16.285 40.35 -66.55
      vertex -16.285 40.35 -66.55
    endloop
  endfacet
  facet normal 1 -0 0
    outer loop
      vertex -14.285 11.85 -19.85
      vertex -14.285 38.35 -62.55
      vertex -14.285 38.35 -19.85
    endloop
  endfacet
  facet normal 1 0 0
    outer loop
      vertex -14.285 38.35 -62.55
      vertex -14.285 11.85 -19.85
      vertex -14.285 11.85 -62.55
    endloop
  endfacet
  facet normal -1 0 0
    outer loop
      vertex 14.285 11.85 -62.55
      vertex 14.285 38.35 -19.85
      vertex 14.285 38.35 -62.55
    endloop
  endfacet
  facet normal -1 -0 0
    outer loop
      vertex 14.285 38.35 -19.85
      vertex 14.285 11.85 -62.55
      vertex 14.285 11.85 -19.85
    endloop
  endfacet
  facet normal 0 -1 0
    outer loop
      vertex -14.285 38.35 -62.55
      vertex 14.285 38.35 -19.85
      vertex -14.285 38.35 -19.85
    endloop
  endfacet
  facet normal 0 -1 -0
    outer loop
      vertex 14.285 38.35 -19.85
      vertex -14.285 38.35 -62.55
      vertex 14.285 38.35 -62.55
    endloop
  endfacet
  facet normal 0 0 1
    outer loop
      vertex 14.285 38.35 -62.55
      vertex 4.875 25.1 -62.55
      vertex 14.285 11.85 -62.55
    endloop
  endfacet
  facet normal 0 0 1
    outer loop
      vertex 14.285 38.35 -62.55
      vertex 4.50391 26.9656 -62.55
      vertex 4.875 25.1 -62.55
    endloop
  endfacet
  facet normal 0 0 1
    outer loop
      vertex 14.285 38.35 -62.55
      vertex 3.44715 28.5471 -62.55
      vertex 4.50391 26.9656 -62.55
    endloop
  endfacet
  facet normal 0 0 1
    outer loop
      vertex 14.285 38.35 -62.55
      vertex 1.86558 29.6039 -62.55
      vertex 3.44715 28.5471 -62.55
    endloop
  endfacet
  facet normal 0 0 1
    outer loop
      vertex 14.285 38.35 -62.55
      vertex 0 29.975 -62.55
      vertex 1.86558 29.6039 -62.55
    endloop
  endfacet
  facet normal -0 0 1
    outer loop
      vertex -14.285 38.35 -62.55
      vertex 0 29.975 -62.55
      vertex 14.285 38.35 -62.55
    endloop
  endfacet
  facet normal 0 0 1
    outer loop
      vertex -4.50391 26.9656 -62.55
      vertex -14.285 38.35 -62.55
      vertex -4.875 25.1 -62.55
    endloop
  endfacet
  facet normal 0 0 1
    outer loop
      vertex -3.44715 28.5471 -62.55
      vertex -14.285 38.35 -62.55
      vertex -4.50391 26.9656 -62.55
    endloop
  endfacet
  facet normal 0 0 1
    outer loop
      vertex -1.86558 29.6039 -62.55
      vertex -14.285 38.35 -62.55
      vertex -3.44715 28.5471 -62.55
    endloop
  endfacet
  facet normal 0 0 1
    outer loop
      vertex 0 29.975 -62.55
      vertex -14.285 38.35 -62.55
      vertex -1.86558 29.6039 -62.55
    endloop
  endfacet
  facet normal -0 0 1
    outer loop
      vertex 4.50391 23.2344 -62.55
      vertex 14.285 11.85 -62.55
      vertex 4.875 25.1 -62.55
    endloop
  endfacet
  facet normal -0 0 1
    outer loop
      vertex 3.44715 21.6529 -62.55
      vertex 14.285 11.85 -62.55
      vertex 4.50391 23.2344 -62.55
    endloop
  endfacet
  facet normal -0 0 1
    outer loop
      vertex 1.86558 20.5961 -62.55
      vertex 14.285 11.85 -62.55
      vertex 3.44715 21.6529 -62.55
    endloop
  endfacet
  facet normal -0 0 1
    outer loop
      vertex 0 20.225 -62.55
      vertex 14.285 11.85 -62.55
      vertex 1.86558 20.5961 -62.55
    endloop
  endfacet
  facet normal 0 0 1
    outer loop
      vertex -14.285 11.85 -62.55
      vertex 0 20.225 -62.55
      vertex -1.86558 20.5961 -62.55
    endloop
  endfacet
  facet normal 0 0 1
    outer loop
      vertex -14.285 11.85 -62.55
      vertex -4.875 25.1 -62.55
      vertex -14.285 38.35 -62.55
    endloop
  endfacet
  facet normal 0 0 1
    outer loop
      vertex 0 20.225 -62.55
      vertex -14.285 11.85 -62.55
      vertex 14.285 11.85 -62.55
    endloop
  endfacet
  facet normal 0 0 1
    outer loop
      vertex -3.44715 21.6529 -62.55
      vertex -14.285 11.85 -62.55
      vertex -1.86558 20.5961 -62.55
    endloop
  endfacet
  facet normal 0 0 1
    outer loop
      vertex -4.50391 23.2344 -62.55
      vertex -14.285 11.85 -62.55
      vertex -3.44715 21.6529 -62.55
    endloop
  endfacet
  facet normal 0 0 1
    outer loop
      vertex -4.875 25.1 -62.55
      vertex -14.285 11.85 -62.55
      vertex -4.50391 23.2344 -62.55
    endloop
  endfacet
  facet normal 0 1 0
    outer loop
      vertex 5.11598 11.85 -26.2878
      vertex 5.11598 11.85 -45.1122
      vertex -5.61598 11.85 -44.7489
    endloop
  endfacet
  facet normal 0 1 0
    outer loop
      vertex 5.11598 11.85 -45.1122
      vertex -4.925 11.85 -45.7
      vertex -5.61598 11.85 -44.7489
    endloop
  endfacet
  facet normal 0 1 -0
    outer loop
      vertex 5.11598 11.85 -46.2878
      vertex -4.925 11.85 -45.7
      vertex 5.11598 11.85 -45.1122
    endloop
  endfacet
  facet normal 0 1 0
    outer loop
      vertex 14.285 11.85 -62.55
      vertex 5.11598 11.85 -46.2878
      vertex 6.23402 11.85 -46.6511
    endloop
  endfacet
  facet normal 0 1 0
    outer loop
      vertex 5.11598 11.85 -46.2878
      vertex -5.61598 11.85 -46.6511
      vertex -4.925 11.85 -45.7
    endloop
  endfacet
  facet normal 0 1 -0
    outer loop
      vertex 5.11598 11.85 -25.1122
      vertex -5.61598 11.85 -24.7489
      vertex 6.23402 11.85 -24.7489
    endloop
  endfacet
  facet normal 0 1 0
    outer loop
      vertex 5.11598 11.85 -25.1122
      vertex -4.925 11.85 -25.7
      vertex -5.61598 11.85 -24.7489
    endloop
  endfacet
  facet normal 0 1 -0
    outer loop
      vertex 5.11598 11.85 -26.2878
      vertex -4.925 11.85 -25.7
      vertex 5.11598 11.85 -25.1122
    endloop
  endfacet
  facet normal 0 1 -0
    outer loop
      vertex 6.23402 11.85 -44.7489
      vertex 5.11598 11.85 -26.2878
      vertex 6.23402 11.85 -26.6511
    endloop
  endfacet
  facet normal 0 1 0
    outer loop
      vertex 5.11598 11.85 -26.2878
      vertex -5.61598 11.85 -26.6511
      vertex -4.925 11.85 -25.7
    endloop
  endfacet
  facet normal 0 1 0
    outer loop
      vertex -5.61598 11.85 -24.7489
      vertex 14.285 11.85 -19.85
      vertex 6.23402 11.85 -24.7489
    endloop
  endfacet
  facet normal 0 1 0
    outer loop
      vertex 14.285 11.85 -19.85
      vertex 6.925 11.85 -25.7
      vertex 6.23402 11.85 -24.7489
    endloop
  endfacet
  facet normal 0 1 0
    outer loop
      vertex 6.925 11.85 -45.7
      vertex 6.925 11.85 -25.7
      vertex 14.285 11.85 -19.85
    endloop
  endfacet
  facet normal 0 1 0
    outer loop
      vertex 5.11598 11.85 -45.1122
      vertex 5.11598 11.85 -26.2878
      vertex 6.23402 11.85 -44.7489
    endloop
  endfacet
  facet normal 0 1 0
    outer loop
      vertex 6.925 11.85 -25.7
      vertex 6.925 11.85 -45.7
      vertex 6.23402 11.85 -26.6511
    endloop
  endfacet
  facet normal 0 1 0
    outer loop
      vertex 6.23402 11.85 -26.6511
      vertex 6.925 11.85 -45.7
      vertex 6.23402 11.85 -44.7489
    endloop
  endfacet
  facet normal 0 1 0
    outer loop
      vertex 5.11598 11.85 -46.2878
      vertex 14.285 11.85 -62.55
      vertex -5.61598 11.85 -46.6511
    endloop
  endfacet
  facet normal 0 1 0
    outer loop
      vertex 6.925 11.85 -45.7
      vertex 14.285 11.85 -62.55
      vertex 6.23402 11.85 -46.6511
    endloop
  endfacet
  facet normal 0 1 -0
    outer loop
      vertex 14.285 11.85 -62.55
      vertex 6.925 11.85 -45.7
      vertex 14.285 11.85 -19.85
    endloop
  endfacet
  facet normal 0 1 0
    outer loop
      vertex 14.285 11.85 -19.85
      vertex -5.61598 11.85 -24.7489
      vertex -14.285 11.85 -19.85
    endloop
  endfacet
  facet normal 0 1 -0
    outer loop
      vertex -6.73402 11.85 -25.1122
      vertex -14.285 11.85 -19.85
      vertex -5.61598 11.85 -24.7489
    endloop
  endfacet
  facet normal 0 1 -0
    outer loop
      vertex -6.73402 11.85 -26.2878
      vertex -14.285 11.85 -19.85
      vertex -6.73402 11.85 -25.1122
    endloop
  endfacet
  facet normal 0 1 0
    outer loop
      vertex 5.11598 11.85 -26.2878
      vertex -5.61598 11.85 -44.7489
      vertex -5.61598 11.85 -26.6511
    endloop
  endfacet
  facet normal 0 1 0
    outer loop
      vertex -5.61598 11.85 -26.6511
      vertex -5.61598 11.85 -44.7489
      vertex -6.73402 11.85 -26.2878
    endloop
  endfacet
  facet normal 0 1 0
    outer loop
      vertex -6.73402 11.85 -45.1122
      vertex -6.73402 11.85 -26.2878
      vertex -5.61598 11.85 -44.7489
    endloop
  endfacet
  facet normal 0 1 0
    outer loop
      vertex -6.73402 11.85 -26.2878
      vertex -6.73402 11.85 -45.1122
      vertex -14.285 11.85 -19.85
    endloop
  endfacet
  facet normal 0 1 0
    outer loop
      vertex -14.285 11.85 -62.55
      vertex -6.73402 11.85 -45.1122
      vertex -6.73402 11.85 -46.2878
    endloop
  endfacet
  facet normal 0 1 0
    outer loop
      vertex -14.285 11.85 -62.55
      vertex -5.61598 11.85 -46.6511
      vertex 14.285 11.85 -62.55
    endloop
  endfacet
  facet normal 0 1 0
    outer loop
      vertex -6.73402 11.85 -45.1122
      vertex -14.285 11.85 -62.55
      vertex -14.285 11.85 -19.85
    endloop
  endfacet
  facet normal 0 1 0
    outer loop
      vertex -5.61598 11.85 -46.6511
      vertex -14.285 11.85 -62.55
      vertex -6.73402 11.85 -46.2878
    endloop
  endfacet
  facet normal -0.980785 -0.195091 0
    outer loop
      vertex 4.875 25.1 -66.55
      vertex 4.50391 26.9656 -62.55
      vertex 4.50391 26.9656 -66.55
    endloop
  endfacet
  facet normal -0.980785 -0.195091 0
    outer loop
      vertex 4.50391 26.9656 -62.55
      vertex 4.875 25.1 -66.55
      vertex 4.875 25.1 -62.55
    endloop
  endfacet
  facet normal 0.980785 -0.195091 0
    outer loop
      vertex -4.875 25.1 -62.55
      vertex -4.50391 26.9656 -66.55
      vertex -4.50391 26.9656 -62.55
    endloop
  endfacet
  facet normal 0.980785 -0.195091 0
    outer loop
      vertex -4.50391 26.9656 -66.55
      vertex -4.875 25.1 -62.55
      vertex -4.875 25.1 -66.55
    endloop
  endfacet
  facet normal -0.195091 -0.980785 0
    outer loop
      vertex 0 29.975 -66.55
      vertex 1.86558 29.6039 -62.55
      vertex 0 29.975 -62.55
    endloop
  endfacet
  facet normal -0.195091 -0.980785 -0
    outer loop
      vertex 1.86558 29.6039 -62.55
      vertex 0 29.975 -66.55
      vertex 1.86558 29.6039 -66.55
    endloop
  endfacet
  facet normal -0.83147 -0.55557 0
    outer loop
      vertex 4.50391 26.9656 -66.55
      vertex 3.44715 28.5471 -62.55
      vertex 3.44715 28.5471 -66.55
    endloop
  endfacet
  facet normal -0.83147 -0.55557 0
    outer loop
      vertex 3.44715 28.5471 -62.55
      vertex 4.50391 26.9656 -66.55
      vertex 4.50391 26.9656 -62.55
    endloop
  endfacet
  facet normal -0.195091 0.980785 0
    outer loop
      vertex 1.86558 20.5961 -66.55
      vertex 0 20.225 -62.55
      vertex 1.86558 20.5961 -62.55
    endloop
  endfacet
  facet normal -0.195091 0.980785 0
    outer loop
      vertex 0 20.225 -62.55
      vertex 1.86558 20.5961 -66.55
      vertex 0 20.225 -66.55
    endloop
  endfacet
  facet normal -0.55557 -0.83147 0
    outer loop
      vertex 1.86558 29.6039 -66.55
      vertex 3.44715 28.5471 -62.55
      vertex 1.86558 29.6039 -62.55
    endloop
  endfacet
  facet normal -0.55557 -0.83147 -0
    outer loop
      vertex 3.44715 28.5471 -62.55
      vertex 1.86558 29.6039 -66.55
      vertex 3.44715 28.5471 -66.55
    endloop
  endfacet
  facet normal 0.55557 -0.83147 0
    outer loop
      vertex -3.44715 28.5471 -66.55
      vertex -1.86558 29.6039 -62.55
      vertex -3.44715 28.5471 -62.55
    endloop
  endfacet
  facet normal 0.55557 -0.83147 0
    outer loop
      vertex -1.86558 29.6039 -62.55
      vertex -3.44715 28.5471 -66.55
      vertex -1.86558 29.6039 -66.55
    endloop
  endfacet
  facet normal 0.83147 -0.55557 0
    outer loop
      vertex -4.50391 26.9656 -62.55
      vertex -3.44715 28.5471 -66.55
      vertex -3.44715 28.5471 -62.55
    endloop
  endfacet
  facet normal 0.83147 -0.55557 0
    outer loop
      vertex -3.44715 28.5471 -66.55
      vertex -4.50391 26.9656 -62.55
      vertex -4.50391 26.9656 -66.55
    endloop
  endfacet
  facet normal 0.195091 -0.980785 0
    outer loop
      vertex -1.86558 29.6039 -66.55
      vertex 0 29.975 -62.55
      vertex -1.86558 29.6039 -62.55
    endloop
  endfacet
  facet normal 0.195091 -0.980785 0
    outer loop
      vertex 0 29.975 -62.55
      vertex -1.86558 29.6039 -66.55
      vertex 0 29.975 -66.55
    endloop
  endfacet
  facet normal 0.55557 0.83147 -0
    outer loop
      vertex -1.86558 20.5961 -66.55
      vertex -3.44715 21.6529 -62.55
      vertex -1.86558 20.5961 -62.55
    endloop
  endfacet
  facet normal 0.55557 0.83147 0
    outer loop
      vertex -3.44715 21.6529 -62.55
      vertex -1.86558 20.5961 -66.55
      vertex -3.44715 21.6529 -66.55
    endloop
  endfacet
  facet normal 0.980785 0.195091 0
    outer loop
      vertex -4.50391 23.2344 -62.55
      vertex -4.875 25.1 -66.55
      vertex -4.875 25.1 -62.55
    endloop
  endfacet
  facet normal 0.980785 0.195091 0
    outer loop
      vertex -4.875 25.1 -66.55
      vertex -4.50391 23.2344 -62.55
      vertex -4.50391 23.2344 -66.55
    endloop
  endfacet
  facet normal -0.980785 0.195091 0
    outer loop
      vertex 4.50391 23.2344 -66.55
      vertex 4.875 25.1 -62.55
      vertex 4.875 25.1 -66.55
    endloop
  endfacet
  facet normal -0.980785 0.195091 0
    outer loop
      vertex 4.875 25.1 -62.55
      vertex 4.50391 23.2344 -66.55
      vertex 4.50391 23.2344 -62.55
    endloop
  endfacet
  facet normal -0.55557 0.83147 0
    outer loop
      vertex 3.44715 21.6529 -66.55
      vertex 1.86558 20.5961 -62.55
      vertex 3.44715 21.6529 -62.55
    endloop
  endfacet
  facet normal -0.55557 0.83147 0
    outer loop
      vertex 1.86558 20.5961 -62.55
      vertex 3.44715 21.6529 -66.55
      vertex 1.86558 20.5961 -66.55
    endloop
  endfacet
  facet normal -0.83147 0.55557 0
    outer loop
      vertex 3.44715 21.6529 -66.55
      vertex 4.50391 23.2344 -62.55
      vertex 4.50391 23.2344 -66.55
    endloop
  endfacet
  facet normal -0.83147 0.55557 0
    outer loop
      vertex 4.50391 23.2344 -62.55
      vertex 3.44715 21.6529 -66.55
      vertex 3.44715 21.6529 -62.55
    endloop
  endfacet
  facet normal 0.195091 0.980785 -0
    outer loop
      vertex 0 20.225 -66.55
      vertex -1.86558 20.5961 -62.55
      vertex 0 20.225 -62.55
    endloop
  endfacet
  facet normal 0.195091 0.980785 0
    outer loop
      vertex -1.86558 20.5961 -62.55
      vertex 0 20.225 -66.55
      vertex -1.86558 20.5961 -66.55
    endloop
  endfacet
  facet normal 0.83147 0.55557 0
    outer loop
      vertex -3.44715 21.6529 -62.55
      vertex -4.50391 23.2344 -66.55
      vertex -4.50391 23.2344 -62.55
    endloop
  endfacet
  facet normal 0.83147 0.55557 0
    outer loop
      vertex -4.50391 23.2344 -66.55
      vertex -3.44715 21.6529 -62.55
      vertex -3.44715 21.6529 -66.55
    endloop
  endfacet
  facet normal -0.809017 0 -0.587785
    outer loop
      vertex 6.925 9.85 -25.7
      vertex 6.23402 11.85 -24.7489
      vertex 6.925 11.85 -25.7
    endloop
  endfacet
  facet normal -0.809017 -0 -0.587785
    outer loop
      vertex 6.23402 11.85 -24.7489
      vertex 6.925 9.85 -25.7
      vertex 6.23402 9.85 -24.7489
    endloop
  endfacet
  facet normal 0.309016 0 -0.951057
    outer loop
      vertex 5.11598 9.85 -25.1122
      vertex 6.23402 11.85 -24.7489
      vertex 6.23402 9.85 -24.7489
    endloop
  endfacet
  facet normal 0.309016 0 -0.951057
    outer loop
      vertex 6.23402 11.85 -24.7489
      vertex 5.11598 9.85 -25.1122
      vertex 5.11598 11.85 -25.1122
    endloop
  endfacet
  facet normal 1 -0 0
    outer loop
      vertex 5.11598 9.85 -25.1122
      vertex 5.11598 11.85 -26.2878
      vertex 5.11598 11.85 -25.1122
    endloop
  endfacet
  facet normal 1 0 0
    outer loop
      vertex 5.11598 11.85 -26.2878
      vertex 5.11598 9.85 -25.1122
      vertex 5.11598 9.85 -26.2878
    endloop
  endfacet
  facet normal 0.309017 0 0.951056
    outer loop
      vertex 5.11598 11.85 -26.2878
      vertex 6.23402 9.85 -26.6511
      vertex 6.23402 11.85 -26.6511
    endloop
  endfacet
  facet normal 0.309017 0 0.951056
    outer loop
      vertex 6.23402 9.85 -26.6511
      vertex 5.11598 11.85 -26.2878
      vertex 5.11598 9.85 -26.2878
    endloop
  endfacet
  facet normal -0.809017 0 0.587786
    outer loop
      vertex 6.23402 9.85 -26.6511
      vertex 6.925 11.85 -25.7
      vertex 6.23402 11.85 -26.6511
    endloop
  endfacet
  facet normal -0.809017 0 0.587786
    outer loop
      vertex 6.925 11.85 -25.7
      vertex 6.23402 9.85 -26.6511
      vertex 6.925 9.85 -25.7
    endloop
  endfacet
  facet normal -0.809017 0 -0.587785
    outer loop
      vertex -4.925 9.85 -25.7
      vertex -5.61598 11.85 -24.7489
      vertex -4.925 11.85 -25.7
    endloop
  endfacet
  facet normal -0.809017 -0 -0.587785
    outer loop
      vertex -5.61598 11.85 -24.7489
      vertex -4.925 9.85 -25.7
      vertex -5.61598 9.85 -24.7489
    endloop
  endfacet
  facet normal 0.309016 0 -0.951057
    outer loop
      vertex -6.73402 9.85 -25.1122
      vertex -5.61598 11.85 -24.7489
      vertex -5.61598 9.85 -24.7489
    endloop
  endfacet
  facet normal 0.309016 0 -0.951057
    outer loop
      vertex -5.61598 11.85 -24.7489
      vertex -6.73402 9.85 -25.1122
      vertex -6.73402 11.85 -25.1122
    endloop
  endfacet
  facet normal 1 -0 0
    outer loop
      vertex -6.73402 9.85 -25.1122
      vertex -6.73402 11.85 -26.2878
      vertex -6.73402 11.85 -25.1122
    endloop
  endfacet
  facet normal 1 0 0
    outer loop
      vertex -6.73402 11.85 -26.2878
      vertex -6.73402 9.85 -25.1122
      vertex -6.73402 9.85 -26.2878
    endloop
  endfacet
  facet normal 0.309017 0 0.951056
    outer loop
      vertex -6.73402 11.85 -26.2878
      vertex -5.61598 9.85 -26.6511
      vertex -5.61598 11.85 -26.6511
    endloop
  endfacet
  facet normal 0.309017 0 0.951056
    outer loop
      vertex -5.61598 9.85 -26.6511
      vertex -6.73402 11.85 -26.2878
      vertex -6.73402 9.85 -26.2878
    endloop
  endfacet
  facet normal -0.809017 0 0.587786
    outer loop
      vertex -5.61598 9.85 -26.6511
      vertex -4.925 11.85 -25.7
      vertex -5.61598 11.85 -26.6511
    endloop
  endfacet
  facet normal -0.809017 0 0.587786
    outer loop
      vertex -4.925 11.85 -25.7
      vertex -5.61598 9.85 -26.6511
      vertex -4.925 9.85 -25.7
    endloop
  endfacet
  facet normal -0.809017 0 -0.587785
    outer loop
      vertex 6.925 9.85 -45.7
      vertex 6.23402 11.85 -44.7489
      vertex 6.925 11.85 -45.7
    endloop
  endfacet
  facet normal -0.809017 -0 -0.587785
    outer loop
      vertex 6.23402 11.85 -44.7489
      vertex 6.925 9.85 -45.7
      vertex 6.23402 9.85 -44.7489
    endloop
  endfacet
  facet normal 0.309016 0 -0.951057
    outer loop
      vertex 5.11598 9.85 -45.1122
      vertex 6.23402 11.85 -44.7489
      vertex 6.23402 9.85 -44.7489
    endloop
  endfacet
  facet normal 0.309016 0 -0.951057
    outer loop
      vertex 6.23402 11.85 -44.7489
      vertex 5.11598 9.85 -45.1122
      vertex 5.11598 11.85 -45.1122
    endloop
  endfacet
  facet normal 1 -0 0
    outer loop
      vertex 5.11598 9.85 -45.1122
      vertex 5.11598 11.85 -46.2878
      vertex 5.11598 11.85 -45.1122
    endloop
  endfacet
  facet normal 1 0 0
    outer loop
      vertex 5.11598 11.85 -46.2878
      vertex 5.11598 9.85 -45.1122
      vertex 5.11598 9.85 -46.2878
    endloop
  endfacet
  facet normal 0.309016 0 0.951057
    outer loop
      vertex 5.11598 11.85 -46.2878
      vertex 6.23402 9.85 -46.6511
      vertex 6.23402 11.85 -46.6511
    endloop
  endfacet
  facet normal 0.309016 0 0.951057
    outer loop
      vertex 6.23402 9.85 -46.6511
      vertex 5.11598 11.85 -46.2878
      vertex 5.11598 9.85 -46.2878
    endloop
  endfacet
  facet normal -0.809016 0 0.587786
    outer loop
      vertex 6.23402 9.85 -46.6511
      vertex 6.925 11.85 -45.7
      vertex 6.23402 11.85 -46.6511
    endloop
  endfacet
  facet normal -0.809016 0 0.587786
    outer loop
      vertex 6.925 11.85 -45.7
      vertex 6.23402 9.85 -46.6511
      vertex 6.925 9.85 -45.7
    endloop
  endfacet
  facet normal -0.809017 0 -0.587785
    outer loop
      vertex -4.925 9.85 -45.7
      vertex -5.61598 11.85 -44.7489
      vertex -4.925 11.85 -45.7
    endloop
  endfacet
  facet normal -0.809017 -0 -0.587785
    outer loop
      vertex -5.61598 11.85 -44.7489
      vertex -4.925 9.85 -45.7
      vertex -5.61598 9.85 -44.7489
    endloop
  endfacet
  facet normal 0.309016 0 -0.951057
    outer loop
      vertex -6.73402 9.85 -45.1122
      vertex -5.61598 11.85 -44.7489
      vertex -5.61598 9.85 -44.7489
    endloop
  endfacet
  facet normal 0.309016 0 -0.951057
    outer loop
      vertex -5.61598 11.85 -44.7489
      vertex -6.73402 9.85 -45.1122
      vertex -6.73402 11.85 -45.1122
    endloop
  endfacet
  facet normal 1 -0 0
    outer loop
      vertex -6.73402 9.85 -45.1122
      vertex -6.73402 11.85 -46.2878
      vertex -6.73402 11.85 -45.1122
    endloop
  endfacet
  facet normal 1 0 0
    outer loop
      vertex -6.73402 11.85 -46.2878
      vertex -6.73402 9.85 -45.1122
      vertex -6.73402 9.85 -46.2878
    endloop
  endfacet
  facet normal 0.309016 0 0.951057
    outer loop
      vertex -6.73402 11.85 -46.2878
      vertex -5.61598 9.85 -46.6511
      vertex -5.61598 11.85 -46.6511
    endloop
  endfacet
  facet normal 0.309016 0 0.951057
    outer loop
      vertex -5.61598 9.85 -46.6511
      vertex -6.73402 11.85 -46.2878
      vertex -6.73402 9.85 -46.2878
    endloop
  endfacet
  facet normal -0.809016 0 0.587786
    outer loop
      vertex -5.61598 9.85 -46.6511
      vertex -4.925 11.85 -45.7
      vertex -5.61598 11.85 -46.6511
    endloop
  endfacet
  facet normal -0.809016 0 0.587786
    outer loop
      vertex -4.925 11.85 -45.7
      vertex -5.61598 9.85 -46.6511
      vertex -4.925 9.85 -45.7
    endloop
  endfacet
endsolid OpenSCAD_Model
