solid OpenSCAD_Model
  facet normal 0.951056 0.309017 0
    outer loop
      vertex 3 0 20
      vertex 2.42705 1.76336 0
      vertex 2.42705 1.76336 20
    endloop
  endfacet
  facet normal 0.951056 0.309017 0
    outer loop
      vertex 2.42705 1.76336 0
      vertex 3 0 20
      vertex 3 0 0
    endloop
  endfacet
  facet normal -0.951056 0.309017 0
    outer loop
      vertex -3 0 0
      vertex -2.42705 1.76336 20
      vertex -2.42705 1.76336 0
    endloop
  endfacet
  facet normal -0.951056 0.309017 0
    outer loop
      vertex -2.42705 1.76336 20
      vertex -3 0 0
      vertex -3 0 20
    endloop
  endfacet
  facet normal 0 -1 0
    outer loop
      vertex -0.927051 -2.85317 0
      vertex 0.927051 -2.85317 20
      vertex -0.927051 -2.85317 20
    endloop
  endfacet
  facet normal 0 -1 -0
    outer loop
      vertex 0.927051 -2.85317 20
      vertex -0.927051 -2.85317 0
      vertex 0.927051 -2.85317 0
    endloop
  endfacet
  facet normal 0 1 -0
    outer loop
      vertex 0.927051 2.85317 0
      vertex -0.927051 2.85317 20
      vertex 0.927051 2.85317 20
    endloop
  endfacet
  facet normal 0 1 0
    outer loop
      vertex -0.927051 2.85317 20
      vertex 0.927051 2.85317 0
      vertex -0.927051 2.85317 0
    endloop
  endfacet
  facet normal 0.587785 0.809017 -0
    outer loop
      vertex 2.42705 1.76336 0
      vertex 0.927051 2.85317 20
      vertex 2.42705 1.76336 20
    endloop
  endfacet
  facet normal 0.587785 0.809017 0
    outer loop
      vertex 0.927051 2.85317 20
      vertex 2.42705 1.76336 0
      vertex 0.927051 2.85317 0
    endloop
  endfacet
  facet normal 0 0 1
    outer loop
      vertex 1.6 0 20
      vertex 3 0 20
      vertex 2.42705 1.76336 20
    endloop
  endfacet
  facet normal 0 0 1
    outer loop
      vertex 3 0 20
      vertex 1.6 0 20
      vertex 2.42705 -1.76336 20
    endloop
  endfacet
  facet normal 0 0 1
    outer loop
      vertex 0.799999 1.38564 20
      vertex 2.42705 1.76336 20
      vertex 0.927051 2.85317 20
    endloop
  endfacet
  facet normal 0 0 1
    outer loop
      vertex 2.42705 1.76336 20
      vertex 0.799999 1.38564 20
      vertex 1.6 0 20
    endloop
  endfacet
  facet normal 0 0 1
    outer loop
      vertex 0.927051 2.85317 20
      vertex -0.799999 1.38564 20
      vertex 0.799999 1.38564 20
    endloop
  endfacet
  facet normal -0 0 1
    outer loop
      vertex -0.927051 2.85317 20
      vertex -0.799999 1.38564 20
      vertex 0.927051 2.85317 20
    endloop
  endfacet
  facet normal -0 0 1
    outer loop
      vertex -2.42705 1.76336 20
      vertex -0.799999 1.38564 20
      vertex -0.927051 2.85317 20
    endloop
  endfacet
  facet normal 0 0 1
    outer loop
      vertex -0.799999 1.38564 20
      vertex -2.42705 1.76336 20
      vertex -1.6 0 20
    endloop
  endfacet
  facet normal -0 0 1
    outer loop
      vertex 0.799999 -1.38564 20
      vertex 2.42705 -1.76336 20
      vertex 1.6 0 20
    endloop
  endfacet
  facet normal 0 0 1
    outer loop
      vertex 2.42705 -1.76336 20
      vertex 0.799999 -1.38564 20
      vertex 0.927051 -2.85317 20
    endloop
  endfacet
  facet normal -0 0 1
    outer loop
      vertex -0.799999 -1.38564 20
      vertex 0.927051 -2.85317 20
      vertex 0.799999 -1.38564 20
    endloop
  endfacet
  facet normal 0 0 1
    outer loop
      vertex -0.799999 -1.38564 20
      vertex -0.927051 -2.85317 20
      vertex 0.927051 -2.85317 20
    endloop
  endfacet
  facet normal 0 0 1
    outer loop
      vertex -2.42705 -1.76336 20
      vertex -0.799999 -1.38564 20
      vertex -1.6 0 20
    endloop
  endfacet
  facet normal 0 0 1
    outer loop
      vertex -3 0 20
      vertex -1.6 0 20
      vertex -2.42705 1.76336 20
    endloop
  endfacet
  facet normal 0 0 1
    outer loop
      vertex -0.799999 -1.38564 20
      vertex -2.42705 -1.76336 20
      vertex -0.927051 -2.85317 20
    endloop
  endfacet
  facet normal 0 0 1
    outer loop
      vertex -1.6 0 20
      vertex -3 0 20
      vertex -2.42705 -1.76336 20
    endloop
  endfacet
  facet normal -0.587785 0.809017 0
    outer loop
      vertex -0.927051 2.85317 0
      vertex -2.42705 1.76336 20
      vertex -0.927051 2.85317 20
    endloop
  endfacet
  facet normal -0.587785 0.809017 0
    outer loop
      vertex -2.42705 1.76336 20
      vertex -0.927051 2.85317 0
      vertex -2.42705 1.76336 0
    endloop
  endfacet
  facet normal 0.951056 -0.309017 0
    outer loop
      vertex 2.42705 -1.76336 20
      vertex 3 0 0
      vertex 3 0 20
    endloop
  endfacet
  facet normal 0.951056 -0.309017 0
    outer loop
      vertex 3 0 0
      vertex 2.42705 -1.76336 20
      vertex 2.42705 -1.76336 0
    endloop
  endfacet
  facet normal -0.951056 -0.309017 0
    outer loop
      vertex -2.42705 -1.76336 0
      vertex -3 0 20
      vertex -3 0 0
    endloop
  endfacet
  facet normal -0.951056 -0.309017 0
    outer loop
      vertex -3 0 20
      vertex -2.42705 -1.76336 0
      vertex -2.42705 -1.76336 20
    endloop
  endfacet
  facet normal 0 0 -1
    outer loop
      vertex 1.6 0 0
      vertex 3 0 0
      vertex 2.42705 -1.76336 0
    endloop
  endfacet
  facet normal 0 0 -1
    outer loop
      vertex 3 0 0
      vertex 1.6 0 0
      vertex 2.42705 1.76336 0
    endloop
  endfacet
  facet normal 0 0 -1
    outer loop
      vertex 0.799999 -1.38564 0
      vertex 2.42705 -1.76336 0
      vertex 0.927051 -2.85317 0
    endloop
  endfacet
  facet normal 0 0 -1
    outer loop
      vertex 2.42705 -1.76336 0
      vertex 0.799999 -1.38564 0
      vertex 1.6 0 0
    endloop
  endfacet
  facet normal 0 0 -1
    outer loop
      vertex 0.927051 -2.85317 0
      vertex -0.799999 -1.38564 0
      vertex 0.799999 -1.38564 0
    endloop
  endfacet
  facet normal 0 0 -1
    outer loop
      vertex -0.927051 -2.85317 0
      vertex -0.799999 -1.38564 0
      vertex 0.927051 -2.85317 0
    endloop
  endfacet
  facet normal 0 0 -1
    outer loop
      vertex -2.42705 -1.76336 0
      vertex -0.799999 -1.38564 0
      vertex -0.927051 -2.85317 0
    endloop
  endfacet
  facet normal -0 0 -1
    outer loop
      vertex -0.799999 -1.38564 0
      vertex -2.42705 -1.76336 0
      vertex -1.6 0 0
    endloop
  endfacet
  facet normal 0 0 -1
    outer loop
      vertex 0.799999 1.38564 0
      vertex 2.42705 1.76336 0
      vertex 1.6 0 0
    endloop
  endfacet
  facet normal -0 0 -1
    outer loop
      vertex 2.42705 1.76336 0
      vertex 0.799999 1.38564 0
      vertex 0.927051 2.85317 0
    endloop
  endfacet
  facet normal 0 0 -1
    outer loop
      vertex -0.799999 1.38564 0
      vertex 0.927051 2.85317 0
      vertex 0.799999 1.38564 0
    endloop
  endfacet
  facet normal 0 0 -1
    outer loop
      vertex -0.799999 1.38564 0
      vertex -0.927051 2.85317 0
      vertex 0.927051 2.85317 0
    endloop
  endfacet
  facet normal 0 0 -1
    outer loop
      vertex -2.42705 1.76336 0
      vertex -0.799999 1.38564 0
      vertex -1.6 0 0
    endloop
  endfacet
  facet normal 0 0 -1
    outer loop
      vertex -3 0 0
      vertex -1.6 0 0
      vertex -2.42705 -1.76336 0
    endloop
  endfacet
  facet normal 0 0 -1
    outer loop
      vertex -0.799999 1.38564 0
      vertex -2.42705 1.76336 0
      vertex -0.927051 2.85317 0
    endloop
  endfacet
  facet normal 0 0 -1
    outer loop
      vertex -1.6 0 0
      vertex -3 0 0
      vertex -2.42705 1.76336 0
    endloop
  endfacet
  facet normal 0.587785 -0.809017 0
    outer loop
      vertex 0.927051 -2.85317 0
      vertex 2.42705 -1.76336 20
      vertex 0.927051 -2.85317 20
    endloop
  endfacet
  facet normal 0.587785 -0.809017 0
    outer loop
      vertex 2.42705 -1.76336 20
      vertex 0.927051 -2.85317 0
      vertex 2.42705 -1.76336 0
    endloop
  endfacet
  facet normal -0.587785 -0.809017 0
    outer loop
      vertex -2.42705 -1.76336 0
      vertex -0.927051 -2.85317 20
      vertex -2.42705 -1.76336 20
    endloop
  endfacet
  facet normal -0.587785 -0.809017 -0
    outer loop
      vertex -0.927051 -2.85317 20
      vertex -2.42705 -1.76336 0
      vertex -0.927051 -2.85317 0
    endloop
  endfacet
  facet normal -0.866025 -0.5 0
    outer loop
      vertex 1.6 0 0
      vertex 0.799999 1.38564 20
      vertex 0.799999 1.38564 0
    endloop
  endfacet
  facet normal -0.866025 -0.5 0
    outer loop
      vertex 0.799999 1.38564 20
      vertex 1.6 0 0
      vertex 1.6 0 20
    endloop
  endfacet
  facet normal 0.866025 -0.5 0
    outer loop
      vertex -1.6 0 20
      vertex -0.799999 1.38564 0
      vertex -0.799999 1.38564 20
    endloop
  endfacet
  facet normal 0.866025 -0.5 0
    outer loop
      vertex -0.799999 1.38564 0
      vertex -1.6 0 20
      vertex -1.6 0 0
    endloop
  endfacet
  facet normal 0 -1 0
    outer loop
      vertex -0.799999 1.38564 0
      vertex 0.799999 1.38564 20
      vertex -0.799999 1.38564 20
    endloop
  endfacet
  facet normal 0 -1 -0
    outer loop
      vertex 0.799999 1.38564 20
      vertex -0.799999 1.38564 0
      vertex 0.799999 1.38564 0
    endloop
  endfacet
  facet normal -0.866025 0.5 0
    outer loop
      vertex 0.799999 -1.38564 0
      vertex 1.6 0 20
      vertex 1.6 0 0
    endloop
  endfacet
  facet normal -0.866025 0.5 0
    outer loop
      vertex 1.6 0 20
      vertex 0.799999 -1.38564 0
      vertex 0.799999 -1.38564 20
    endloop
  endfacet
  facet normal 0 1 -0
    outer loop
      vertex 0.799999 -1.38564 0
      vertex -0.799999 -1.38564 20
      vertex 0.799999 -1.38564 20
    endloop
  endfacet
  facet normal 0 1 0
    outer loop
      vertex -0.799999 -1.38564 20
      vertex 0.799999 -1.38564 0
      vertex -0.799999 -1.38564 0
    endloop
  endfacet
  facet normal 0.866025 0.5 0
    outer loop
      vertex -0.799999 -1.38564 20
      vertex -1.6 0 0
      vertex -1.6 0 20
    endloop
  endfacet
  facet normal 0.866025 0.5 0
    outer loop
      vertex -1.6 0 0
      vertex -0.799999 -1.38564 20
      vertex -0.799999 -1.38564 0
    endloop
  endfacet
endsolid OpenSCAD_Model
